# xmcd
#
# Track frame offsets: 
#        150
#        13692
#        26605
#        39925
#        52945
#        67317
#        80315
#        93127
#        106280
#        117820
#        134385
#        146562
#        161597
#        173959
#        185417
#        198610
#        213432
#        229952
#        242715
#        256847
#
# Disc length: 3587 seconds
#
# Revision: 9
# Processed by: cddbd v1.5.2PL0 Copyright (c) Steve Scherf et al.
# Submitted via: ExactAudioCopy v1.3
#
DISCID=120e0114
DTITLE=Dr. Hook - Sharing The Night Together - The best of Dr. Hook
DYEAR=1996
DGENRE=Pop
TTITLE0=Better Love Next Time
TTITLE1=Sharing The Night Together
TTITLE2=Sexy Eyes
TTITLE3=When You're In Love With A Beautiful Woman
TTITLE4=If Not You
TTITLE5=A Little Bit More
TTITLE6=Oh, Jesse
TTITLE7=Years From Now
TTITLE8=Sweetest Of All
TTITLE9=In Over My Head
TTITLE10=I Don't Feel Much Like Smilin'
TTITLE11=I Don't Want To Be Alone Tonight
TTITLE12=Only Sixteen
TTITLE13=All The Time In The World
TTITLE14=Everybody Is Making It Big But Me
TTITLE15=Storms Never Last
TTITLE16=More Like The Movies
TTITLE17=What About You
TTITLE18=A Couple More Years
TTITLE19=Makin' Love And Music
EXTD=YEAR: 1996
EXTT0=
EXTT1=
EXTT2=
EXTT3=
EXTT4=
EXTT5=
EXTT6=
EXTT7=
EXTT8=
EXTT9=
EXTT10=
EXTT11=
EXTT12=
EXTT13=
EXTT14=
EXTT15=
EXTT16=
EXTT17=
EXTT18=
EXTT19=
PLAYORDER=
